<svg xmlns="http://www.w3.org/2000/svg" width="1000" height="255"><g transform="translate(-.606 -.275)"><svg xmlns="http://www.w3.org/2000/svg" xmlns:svgjs="http://svgjs.com/svgjs" xmlns:xlink="http://www.w3.org/1999/xlink" width="1000" height="255" data-background-color="#f9f9f9" viewBox="0 0 396 101"><g transform="translate(.24 .11)"><svg width="395.52" height="100.782" viewBox="0 0 395.52 100.782"><g><svg width="395.52" height="100.782" viewBox="0 0 395.52 100.782"><g><svg width="395.52" height="100.782" viewBox="0 0 395.52 100.782"><g><svg width="395.52" height="100.782" viewBox="0 0 395.52 100.782"><g><svg width="395.52" height="100.782" viewBox="0 0 395.52 100.782"><path fill="#030303" d="M394.594 21.616c-1.859-10.461-7.159-13.37-7.159-13.37-16.27-10.774-36.575-8.452-54.816-6.904-32.205.063-64.28 2.364-96.411 3.599-67.441.188-135.459-2.908-202.565 4.728-6.304 2.343-40.183.46-32.522 13.286 2.008 5.335 9.335 11.256 9.111 16.152 1.004.858 2.399-1.109 2.994.125 2.083 3.327 5.485 1.758 8.275 3.724-3.887 5.252-1.098 9.625 1.561 14.207-4.685 1.192-10.691.627-13.387 4.582-.279 2.866-1.785 2.322-3.44 2.196-1.209-.083-3.645.231-3.236 1.13 1.395 3.076-4.593 4.854-.837 7.867-2.584 3.264 1.786 6.088 1.191 9.624-.075.712.334 1.318.985 1.486 2.882.899-1.32 2.657-.874 4.561 29.565 13.013 61.64 4.017 91.93 10.001 7.865-4.185 1.952 1.485 5.095.606 2.454-1.025 4.239 3.222 7.01.816.428-.69-.223-2.322 1.301-2.008.8.167 1.507.125 1.618-.837.168-1.444-1.301-.544-1.692-1.297 4.221-3.808 3.18 5.251 7.14 4.875-.186-1.109-1.338-2.699 1.023-2.49 2.343-1.59 2.417-2.908 4.5.669.074.775.446 1.318 1.041 1.695 6.508-3.891 12.979 1.381 19.803-.377 4.184-1.924 8.2 1.047 12.439.314 1.488-.586 2.994-1.632 4.426.126 17.534.376 36.221-1.193 52.845.063 44.421-2.344 91.893.962 138.731-2.134 11.045-1.193 22.518-2.888 33.284-4.248 0 0 8.721-3.724 8.721-20.462s1.859-14.645 2.138-27.973c.279-13.327 1.581-13.871-.279-24.332Z" data-fill-palette-color="tertiary"/><g transform="translate(55.768 26.23)"><svg width="283.983" height="48.321" data-palette-color="#f9f9f9" viewBox="1.49 -35.79 215.93 36.74"><path fill="#f9f9f9" d="m1.49-.49 14.92-33.35q.83-.51 1.9-1.95h.24l13.46 32.4q.9 2.17 3.68 3.05V.1q-1.58-.17-3.81-.06-2.22.11-3.93.4L27.76.2q.49-.64.23-2.13-.26-1.49-1.5-4.52l-4.03-10.1q-7.18-.12-11.86.05L4.96-3.39q-.52 1.12.37 1.88.9.75 3.51 1.27l-.1.44Q4.49-.12 1.81 0q-.15-.15-.32-.49Zm15.26-30.2-5.5 12.75q3.54.09 10.6 0l-5.1-12.75Zm42.5 25.64 11.6-28.91q1.75-1.29 3.81-1.64L77.9-4.39q.15 1.97 1.03 2.79.88.82 3.17.99l-.14.61q-2.81-.07-4.37.05-1.57.12-3.32.71l-.18-.27q.47-.78.27-2.59l-2.85-28.39L58.96.95l-1.71-.8q-.1-1.74-1.39-4.91L44.7-29.44 41.84-3.39q-.09.85.14 1.38.23.52 1.12.97.89.45 2.65.8l-.1.44q-4-.3-6.25-.2-.19-.2-.29-.49l3.69-31.96q-.69-.56-1.69-.59-1-.04-1.9.18l-.3-.49q3.64-2.05 6.64-2.05.59 1.32 6.58 14.65 6 13.33 7.12 15.7Zm36.99-27.54v28.2q0 1.97.8 2.88.81.9 3.05 1.31l-.19.59Q97.19.02 95.77 0q-1.41-.02-3.61.39l-.17-.24q.51-.71.51-2.59V-28.1q0-3.44-.83-4.64-.83-1.2-3.47-1l-.09-.46q4.02-1.2 7.64-1.2.49 1.34.49 2.81Zm40.57-1.52V0h-1q-1.66-2.25-9.52-12.17-7.86-9.92-11.23-14.37-1.47-1.9-2.81-4.47l-.15.1v27.76q0 .93.6 1.44.6.51 1.32.7.72.18 1.99.4 1.27.22 1.49.27v.49q-4.62-.3-7.4 0-.15-.66-.15-1.3v-28.1q-.07-1.73-.61-3.1-.7-1.9-3.24-1.71v-.49q3.41-.85 6.71-.85l18.38 23.51q1.3 1.64 2.07 2.94.77 1.31 1.5 3.26V-31.1q0-1.71-1.28-2.43-1.29-.72-4.02-.53l-.12-.49q3.17-.78 7.05-.85.42.63.42 1.29Zm23.48-1.24q.9-.1 1.49 1.05l8.81 16.26q7.72-12.04 8.69-14.55.32-.91-.56-1.43-.88-.53-2.93-.72l-.09-.47q4.39-.41 6.54.25.39.19.19.61-.41.83-.9 1.72-.49.89-9.84 15.88v12.36q0 1.97.8 2.88.79.9 3.03 1.31l-.19.59Q172.62.02 171.2 0q-1.41-.02-3.61.39l-.15-.24q.49-.71.49-2.59V-15.8l-7.74-14.01q-.97-1.64-1.73-2.34-.76-.71-1.59-.82-.83-.11-1.98.06l-.36-.44q3.59-1.81 5.76-2ZM183.21-.49l14.92-33.35q.83-.51 1.9-1.95h.25l13.45 32.4q.9 2.17 3.69 3.05V.1q-1.59-.17-3.81-.06-2.22.11-3.93.4l-.2-.24q.49-.64.23-2.13-.25-1.49-1.5-4.52l-4.03-10.1q-7.17-.12-11.86.05l-5.64 13.11q-.51 1.12.38 1.88.89.75 3.5 1.27l-.1.44q-4.24-.32-6.93-.2-.15-.15-.32-.49Zm15.26-30.2-5.49 12.75q3.54.09 10.59 0l-5.1-12.75Z" class="undefined-text-0" data-fill-palette-color="quaternary"/></svg></g></svg></g></svg></g></svg></g></svg></g></svg></g></svg></g></svg>